<svg xmlns="http://www.w3.org/2000/svg" xmlns:xlink="http://www.w3.org/1999/xlink" width="173.196" height="37.61" viewBox="0 0 173.196 37.61">
  <defs>
    <linearGradient id="linear-gradient" x1="0.5" x2="0.5" y2="1" gradientUnits="objectBoundingBox">
      <stop offset="0" stop-color="#ffc329"/>
      <stop offset="1" stop-color="#f28e1c"/>
    </linearGradient>
  </defs>
  <g id="Group_5484" data-name="Group 5484" transform="translate(-753 -4477.594)">
    <g id="Group_5465" data-name="Group 5465" transform="translate(302.561 4300)">
      <g id="Group_5464" data-name="Group 5464" transform="translate(450.439 177.594)">
        <path id="Path_82" data-name="Path 82" d="M475.38,177.594H462.808a12.619,12.619,0,0,0-12.369,10.328H475.38V177.594Z" transform="translate(-450.439 -177.594)" fill="#e09f00" fill-rule="evenodd"/>
        <path id="Path_83" data-name="Path 83" d="M660.058,177.594H672.63A12.62,12.62,0,0,1,685,187.922H660.058Z" transform="translate(-511.803 -177.594)" fill="#e09f00" fill-rule="evenodd"/>
        <path id="Path_84" data-name="Path 84" d="M467.929,177.594c10.54,0,12.345,10.668,15.805,18.382,4.277,9.534,7.466,19.228,20.238,19.228h76.371c12.772,0,15.961-9.693,20.237-19.228,3.461-7.714,5.266-18.382,15.805-18.382Zm148.457,0Zm-148.458,0" transform="translate(-455.559 -177.594)" fill-rule="evenodd" fill="url(#linear-gradient)"/>
      </g>
    </g>
    <text id="Most_popular" data-name="Most popular" transform="translate(840 4501)" fill="#fff" font-size="14" font-family="CircularStd-Medium, Circular Std Medium" font-weight="500"><tspan x="-42.938" y="0">Most popular</tspan></text>
  </g>
</svg>
